<?xml version="1.0"?>
<svg xmlns="http://www.w3.org/2000/svg" xmlns:xlink="http://www.w3.org/1999/xlink" xmlns:svgjs="http://svgjs.com/svgjs" version="1.1" width="512" height="512" x="0" y="0" viewBox="0 0 235 235" style="enable-background:new 0 0 512 512" xml:space="preserve" class=""><g>
<path xmlns="http://www.w3.org/2000/svg" d="M220,99h-20.333V62.5c0-34.462-28.038-62.5-62.5-62.5H97.833c-34.462,0-62.5,28.038-62.5,62.5V99H15  c-4.142,0-7.5,3.358-7.5,7.5v121c0,4.142,3.358,7.5,7.5,7.5h205c4.142,0,7.5-3.358,7.5-7.5v-121C227.5,102.358,224.142,99,220,99z   M160.18,99H74.82V63.207c0-13.211,10.748-23.958,23.958-23.958h37.442c13.211,0,23.958,10.748,23.958,23.958V99z" fill="#d18717" data-original="#000000" style="--darkreader-inline-fill:#a76c12;" data-darkreader-inline-fill="" class=""/>
<g xmlns="http://www.w3.org/2000/svg">
</g>
<g xmlns="http://www.w3.org/2000/svg">
</g>
<g xmlns="http://www.w3.org/2000/svg">
</g>
<g xmlns="http://www.w3.org/2000/svg">
</g>
<g xmlns="http://www.w3.org/2000/svg">
</g>
<g xmlns="http://www.w3.org/2000/svg">
</g>
<g xmlns="http://www.w3.org/2000/svg">
</g>
<g xmlns="http://www.w3.org/2000/svg">
</g>
<g xmlns="http://www.w3.org/2000/svg">
</g>
<g xmlns="http://www.w3.org/2000/svg">
</g>
<g xmlns="http://www.w3.org/2000/svg">
</g>
<g xmlns="http://www.w3.org/2000/svg">
</g>
<g xmlns="http://www.w3.org/2000/svg">
</g>
<g xmlns="http://www.w3.org/2000/svg">
</g>
<g xmlns="http://www.w3.org/2000/svg">
</g>
</g></svg>
